<svg width="89" height="37" viewBox="0 0 89 37" fill="none" xmlns="http://www.w3.org/2000/svg">
<g filter="url(#filter0_d_25368_706)">
<rect x="4.5" y="2" width="80" height="29" rx="2" fill="#99E2D0"/>
</g>
<path d="M25.3929 22H23.6635L19.2269 14.9385V22H17.4974V12.0469H19.2269L23.6771 19.1357V12.0469H25.3929V22ZM26.9652 18.2334C26.9652 17.5088 27.1088 16.8571 27.3959 16.2783C27.683 15.695 28.0863 15.2484 28.6058 14.9385C29.1254 14.624 29.7224 14.4668 30.3968 14.4668C31.3949 14.4668 32.2038 14.7881 32.8236 15.4307C33.448 16.0732 33.7852 16.9255 33.8353 17.9873L33.8422 18.377C33.8422 19.1061 33.7009 19.7578 33.4183 20.332C33.1403 20.9062 32.7393 21.3506 32.2152 21.665C31.6957 21.9795 31.0941 22.1367 30.4105 22.1367C29.3669 22.1367 28.5306 21.7904 27.9017 21.0977C27.2774 20.4004 26.9652 19.473 26.9652 18.3154V18.2334ZM28.6263 18.377C28.6263 19.138 28.7836 19.735 29.098 20.168C29.4125 20.5964 29.85 20.8105 30.4105 20.8105C30.9711 20.8105 31.4063 20.5918 31.7162 20.1543C32.0306 19.7168 32.1879 19.0765 32.1879 18.2334C32.1879 17.486 32.0261 16.8936 31.7025 16.4561C31.3835 16.0186 30.9483 15.7998 30.3968 15.7998C29.8545 15.7998 29.4239 16.0163 29.1049 16.4492C28.7858 16.8776 28.6263 17.5202 28.6263 18.377ZM39.7279 21.2754C39.2403 21.8496 38.5476 22.1367 37.6498 22.1367C36.8477 22.1367 36.2393 21.902 35.8246 21.4326C35.4144 20.9632 35.2093 20.2842 35.2093 19.3955V14.6035H36.8705V19.375C36.8705 20.3138 37.2601 20.7832 38.0394 20.7832C38.8461 20.7832 39.3907 20.4938 39.6732 19.915V14.6035H41.3343V22H39.7689L39.7279 21.2754ZM45.6342 19.8945L47.1996 14.6035H48.9154L46.3519 22H44.9095L42.3256 14.6035H44.0482L45.6342 19.8945ZM53.1195 22.1367C52.0668 22.1367 51.2123 21.8063 50.556 21.1455C49.9043 20.4801 49.5785 19.596 49.5785 18.4932V18.2881C49.5785 17.5498 49.7198 16.8913 50.0023 16.3125C50.2894 15.7292 50.6905 15.2757 51.2054 14.9521C51.7204 14.6286 52.2946 14.4668 52.9281 14.4668C53.9353 14.4668 54.7123 14.7881 55.2592 15.4307C55.8106 16.0732 56.0863 16.9824 56.0863 18.1582V18.8281H51.2533C51.3034 19.4388 51.5062 19.9219 51.8617 20.2773C52.2217 20.6328 52.6729 20.8105 53.2152 20.8105C53.9763 20.8105 54.5961 20.5029 55.0746 19.8877L55.9701 20.7422C55.6739 21.1842 55.2774 21.5283 54.7806 21.7744C54.2885 22.016 53.7347 22.1367 53.1195 22.1367ZM52.9213 15.7998C52.4655 15.7998 52.0964 15.9593 51.8138 16.2783C51.5358 16.5973 51.3581 17.0417 51.2806 17.6113H54.4457V17.4883C54.4092 16.9323 54.2611 16.513 54.0013 16.2305C53.7416 15.9434 53.3816 15.7998 52.9213 15.7998ZM61.8011 22C61.7282 21.8587 61.6644 21.6286 61.6097 21.3096C61.0811 21.861 60.434 22.1367 59.6683 22.1367C58.9255 22.1367 58.3194 21.9248 57.85 21.501C57.3806 21.0771 57.1459 20.5531 57.1459 19.9287C57.1459 19.1403 57.4375 18.5365 58.0209 18.1172C58.6088 17.6934 59.4473 17.4814 60.5365 17.4814H61.5551V16.9961C61.5551 16.6133 61.448 16.3079 61.2338 16.0801C61.0196 15.8477 60.6937 15.7314 60.2562 15.7314C59.878 15.7314 59.5681 15.8271 59.3265 16.0186C59.085 16.2054 58.9642 16.4447 58.9642 16.7363H57.3031C57.3031 16.3307 57.4375 15.9525 57.7064 15.6016C57.9753 15.2461 58.3399 14.9681 58.8002 14.7676C59.265 14.5671 59.7823 14.4668 60.3519 14.4668C61.2178 14.4668 61.9082 14.6855 62.4232 15.123C62.9382 15.556 63.2025 16.1667 63.2162 16.9551V20.291C63.2162 20.9564 63.3096 21.4873 63.4965 21.8838V22H61.8011ZM59.976 20.8037C60.3041 20.8037 60.6117 20.724 60.8988 20.5645C61.1905 20.4049 61.4092 20.1908 61.5551 19.9219V18.5273H60.6595C60.0443 18.5273 59.5817 18.6344 59.2719 18.8486C58.962 19.0628 58.807 19.3659 58.807 19.7578C58.807 20.0768 58.9118 20.332 59.1215 20.5234C59.3357 20.7103 59.6205 20.8037 59.976 20.8037ZM69.4369 21.2754C68.9493 21.8496 68.2566 22.1367 67.3588 22.1367C66.5567 22.1367 65.9483 21.902 65.5336 21.4326C65.1234 20.9632 64.9183 20.2842 64.9183 19.3955V14.6035H66.5795V19.375C66.5795 20.3138 66.9691 20.7832 67.7484 20.7832C68.5551 20.7832 69.0997 20.4938 69.3822 19.915V14.6035H71.0433V22H69.4779L69.4369 21.2754Z" fill="#008766"/>
<defs>
<filter id="filter0_d_25368_706" x="0.5" y="0" width="88" height="37" filterUnits="userSpaceOnUse" color-interpolation-filters="sRGB">
<feFlood flood-opacity="0" result="BackgroundImageFix"/>
<feColorMatrix in="SourceAlpha" type="matrix" values="0 0 0 0 0 0 0 0 0 0 0 0 0 0 0 0 0 0 127 0" result="hardAlpha"/>
<feOffset dy="2"/>
<feGaussianBlur stdDeviation="2"/>
<feColorMatrix type="matrix" values="0 0 0 0 0 0 0 0 0 0 0 0 0 0 0 0 0 0 0.15 0"/>
<feBlend mode="normal" in2="BackgroundImageFix" result="effect1_dropShadow_25368_706"/>
<feBlend mode="normal" in="SourceGraphic" in2="effect1_dropShadow_25368_706" result="shape"/>
</filter>
</defs>
</svg>
